<?xml version="1.0" standalone="no"?>
<!DOCTYPE svg PUBLIC "-//W3C//DTD SVG 20010904//EN"
 "http://www.w3.org/TR/2001/REC-SVG-20010904/DTD/svg10.dtd">
<svg version="1.0" xmlns="http://www.w3.org/2000/svg"
 width="19.000000pt" height="19.000000pt" viewBox="0 0 19.000000 19.000000"
 preserveAspectRatio="xMidYMid meet">

<g transform="translate(0.000000,19.000000) scale(0.100000,-0.100000)"
fill="#000000" stroke="none">
<path d="M6 98 c-9 -81 -8 -98 9 -98 8 0 15 5 15 10 0 6 28 10 65 10 37 0 65
-4 65 -10 0 -5 7 -10 15 -10 17 0 18 17 9 98 l-7 52 -82 0 -82 0 -7 -52z m164
22 c0 -12 -7 -20 -17 -21 -14 0 -13 -2 5 -9 12 -5 22 -16 22 -25 0 -12 -15
-15 -85 -15 -70 0 -85 3 -85 15 0 9 10 20 23 25 17 7 18 9 5 9 -11 1 -18 9
-18 21 0 18 7 20 75 20 68 0 75 -2 75 -20z m9 -97 c0 -11 -3 -13 -6 -5 -3 8
-29 12 -78 12 -49 0 -75 -4 -78 -12 -3 -8 -6 -6 -6 5 -1 15 9 17 84 17 75 0
85 -2 84 -17z"/>
<path d="M75 109 c-15 -6 -11 -8 18 -8 20 -1 37 1 37 3 0 9 -37 12 -55 5z"/>
</g>
</svg>
