<?xml version="1.0" standalone="no"?>
<!DOCTYPE svg PUBLIC "-//W3C//DTD SVG 20010904//EN"
 "http://www.w3.org/TR/2001/REC-SVG-20010904/DTD/svg10.dtd">
<svg version="1.0" xmlns="http://www.w3.org/2000/svg"
 width="19.000000pt" height="19.000000pt" viewBox="0 0 19.000000 19.000000"
 preserveAspectRatio="xMidYMid meet">

<g transform="translate(0.000000,19.000000) scale(0.100000,-0.100000)"
fill="#000000" stroke="none">
<path d="M36 182 c-2 -4 0 -14 5 -22 8 -13 10 -13 18 0 10 15 6 30 -9 30 -5 0
-11 -4 -14 -8z"/>
<path d="M126 182 c-2 -4 0 -14 5 -22 8 -13 10 -13 18 0 10 15 6 30 -9 30 -5
0 -11 -4 -14 -8z"/>
<path d="M11 93 l-1 -83 85 0 85 0 -1 83 c-1 45 -3 74 -6 65 -4 -15 -16 -18
-78 -18 -62 0 -74 3 -78 18 -3 9 -5 -20 -6 -65z m159 -18 l0 -55 -75 0 -75 0
0 55 0 55 75 0 75 0 0 -55z"/>
<path d="M80 85 c0 -8 5 -15 11 -15 5 0 7 -5 3 -12 -4 -7 -3 -8 4 -4 17 10 15
46 -3 46 -8 0 -15 -7 -15 -15z"/>
</g>
</svg>
