<?xml version="1.0" standalone="no"?>
<!DOCTYPE svg PUBLIC "-//W3C//DTD SVG 20010904//EN"
 "http://www.w3.org/TR/2001/REC-SVG-20010904/DTD/svg10.dtd">
<svg version="1.0" xmlns="http://www.w3.org/2000/svg"
 width="96.000000pt" height="96.000000pt" viewBox="0 0 96.000000 96.000000"
 preserveAspectRatio="xMidYMid meet">

<g transform="translate(0.000000,96.000000) scale(0.100000,-0.100000)"
fill="#000000" stroke="none">
<path d="M278 864 c-28 -15 -58 -61 -58 -89 0 -8 -4 -15 -10 -15 -5 0 -25 -14
-44 -31 -41 -36 -53 -81 -36 -133 11 -33 9 -39 -14 -66 -29 -35 -41 -85 -31
-129 14 -63 86 -121 149 -121 25 0 25 -1 28 -97 l3 -98 75 0 75 0 3 66 3 67
-31 4 c-29 4 -30 4 -30 -39 0 -36 -3 -43 -20 -43 -18 0 -20 8 -22 102 l-3 103
-44 -3 c-58 -4 -98 14 -117 51 -27 51 -4 111 49 130 29 11 31 35 3 68 -14 17
-26 38 -26 48 0 28 30 61 55 61 33 0 53 24 47 55 -10 54 64 88 102 46 10 -11
17 -30 16 -43 -5 -55 16 -66 44 -23 20 30 20 48 1 85 -28 55 -109 76 -167 44z"/>
<path d="M522 769 c-46 -61 -82 -118 -80 -127 2 -9 15 -19 30 -22 l27 -5 -50
-68 c-28 -38 -49 -76 -47 -85 2 -9 16 -19 31 -22 l29 -5 -52 -68 c-70 -93 -67
-101 42 -105 l87 -3 3 -87 3 -87 75 0 75 0 3 87 3 87 87 3 c109 4 112 12 42
105 l-52 68 29 5 c15 3 29 13 31 22 2 9 -19 47 -47 85 l-50 68 27 5 c15 3 28
13 30 22 4 21 -158 238 -178 238 -8 0 -53 -50 -98 -111z m147 -34 l42 -55 -91
0 -91 0 42 55 c23 30 45 55 49 55 4 0 26 -25 49 -55z m38 -175 l43 -60 -130 0
-130 0 43 60 c41 58 43 59 87 59 44 0 46 -1 87 -59z m38 -180 l46 -60 -171 0
-171 0 46 60 46 60 79 0 79 0 46 -60z m-105 -180 c0 -53 -2 -60 -20 -60 -18 0
-20 7 -20 60 0 53 2 60 20 60 18 0 20 -7 20 -60z"/>
</g>
</svg>
