<?xml version="1.0" standalone="no"?>
<!DOCTYPE svg PUBLIC "-//W3C//DTD SVG 20010904//EN"
 "http://www.w3.org/TR/2001/REC-SVG-20010904/DTD/svg10.dtd">
<svg version="1.0" xmlns="http://www.w3.org/2000/svg"
 width="48.000000pt" height="48.000000pt" viewBox="0 0 48.000000 48.000000"
 preserveAspectRatio="xMidYMid meet">

<g transform="translate(0.000000,48.000000) scale(0.100000,-0.100000)"
fill="#000000" stroke="none">
<path d="M127 422 c-10 -10 -17 -21 -17 -25 0 -3 -12 -18 -26 -32 -21 -21 -25
-33 -20 -58 3 -20 0 -39 -9 -51 -8 -11 -15 -30 -15 -43 0 -29 42 -73 70 -73
17 0 20 -6 20 -50 l0 -50 40 0 c39 0 40 1 40 35 0 24 -5 35 -15 35 -8 0 -15
-9 -15 -20 0 -11 -4 -20 -10 -20 -5 0 -10 23 -10 50 0 49 -1 50 -29 50 -56 0
-81 55 -39 84 19 14 20 18 9 40 -17 30 -8 56 18 56 14 0 21 8 23 28 2 21 8 27
28 27 20 0 26 -6 28 -28 3 -23 6 -26 18 -16 19 16 18 43 -4 62 -24 22 -65 21
-85 -1z"/>
<path d="M261 385 c-44 -59 -50 -75 -25 -75 13 0 11 -7 -10 -34 -30 -40 -33
-56 -10 -56 13 0 11 -7 -10 -34 -14 -19 -26 -39 -26 -45 0 -6 20 -11 45 -11
l45 0 0 -45 0 -45 40 0 40 0 0 45 0 45 39 0 c51 0 58 13 27 52 -22 29 -23 33
-8 44 14 10 13 15 -10 45 -24 29 -25 34 -11 44 14 10 11 19 -27 68 -23 32 -46
57 -50 57 -4 0 -26 -25 -49 -55z m77 -23 c14 -21 13 -22 -27 -22 -31 0 -40 3
-35 13 25 43 38 45 62 9z m12 -79 l22 -28 -31 -3 c-17 -2 -45 -2 -62 0 l-31 3
22 28 c12 15 30 27 40 27 10 0 28 -12 40 -27z m20 -90 l22 -28 -41 -3 c-23 -2
-59 -2 -82 0 l-41 3 22 28 c30 38 90 38 120 0z m-50 -93 c0 -16 -4 -30 -10
-30 -5 0 -10 14 -10 30 0 17 5 30 10 30 6 0 10 -13 10 -30z"/>
</g>
</svg>
